# xmcd CD database file
#
# Track frame offsets:
#	150
#	15475
#	41195
#	59411
#	75430
#	93097
#	107312
#	126858
#	155740
#	176557
#	197029
#	214850
#	229139
#
# Disc length: 3253 seconds
#
# Revision: 0
# Processed by: cddbd v1.5.2PL0 Copyright (c) Steve Scherf et al.
# Submitted via: CDex 1.70beta2
#
DISCID=a40cb30d
DTITLE=bojeme - Live in Concert (Australia)
DYEAR=2011
DGENRE=New Age
TTITLE0=Summer fever
TTITLE1=Moulin Rouge
TTITLE2=The last of the Mohicans
TTITLE3=Aranjuez
TTITLE4=Sway
TTITLE5=The hunt
TTITLE6=Champions
TTITLE7=The old country
TTITLE8=Robbie
TTITLE9=Jupiter
TTITLE10=Moonlight
TTITLE11=Shaken not stirred
TTITLE12=Tomorrow starts here
EXTD=YEAR: 2011
EXTT0=
EXTT1=
EXTT2=
EXTT3=
EXTT4=
EXTT5=
EXTT6=
EXTT7=
EXTT8=
EXTT9=
EXTT10=
EXTT11=
EXTT12=
PLAYORDER=
